<svg width="24" height="24" viewBox="0 0 24 24" fill="none" xmlns="http://www.w3.org/2000/svg">
<path d="M20.42 4.58002C19.9183 4.07659 19.3222 3.67716 18.6658 3.40461C18.0095 3.13206 17.3057 2.99176 16.595 2.99176C15.8843 2.99176 15.1806 3.13206 14.5242 3.40461C13.8678 3.67716 13.2717 4.07659 12.77 4.58002L12 5.36002L11.23 4.58002C10.7283 4.07659 10.1322 3.67716 9.47585 3.40461C8.81947 3.13206 8.11574 2.99176 7.40503 2.99176C6.69431 2.99176 5.99058 3.13206 5.3342 3.40461C4.67783 3.67716 4.0817 4.07659 3.58003 4.58002C1.46003 6.70002 1.33003 10.28 4.00003 13L12 21L20 13C22.67 10.28 22.54 6.70002 20.42 4.58002Z" stroke="#FC797C" stroke-width="2" stroke-linecap="round" stroke-linejoin="round"/>
<path d="M12 5.35999L8.87001 8.49999C8.4743 8.89893 8.25226 9.43808 8.25226 9.99999C8.25226 10.5619 8.4743 11.101 8.87001 11.5C9.26895 11.8957 9.8081 12.1177 10.37 12.1177C10.9319 12.1177 11.4711 11.8957 11.87 11.5L14.13 9.28999C14.6917 8.73427 15.4499 8.42257 16.24 8.42257C17.0301 8.42257 17.7883 8.73427 18.35 9.28999L20.75 11.69" stroke="#FC797C" stroke-width="2" stroke-linecap="round" stroke-linejoin="round"/>
<path d="M18 15L16 13" stroke="#FC797C" stroke-width="2" stroke-linecap="round" stroke-linejoin="round"/>
<path d="M15 18L13 16" stroke="#FC797C" stroke-width="2" stroke-linecap="round" stroke-linejoin="round"/>
</svg>
