<svg width="24" height="24" viewBox="0 0 24 24" fill="none" xmlns="http://www.w3.org/2000/svg">
<path d="M6.87001 6.87012C6.00764 7.57885 5.30314 8.4602 4.80179 9.45751C4.30044 10.4548 4.01335 11.546 3.95896 12.6609C3.90458 13.7758 4.08412 14.8898 4.48602 15.9311C4.88793 16.9725 5.50331 17.9182 6.29261 18.7075C7.0819 19.4968 8.02764 20.1122 9.069 20.5141C10.1104 20.916 11.2243 21.0955 12.3392 21.0412C13.4541 20.9868 14.5453 20.6997 15.5426 20.1983C16.5399 19.697 17.4213 18.9925 18.13 18.1301" stroke="#133F63" stroke-width="2" stroke-linecap="round" stroke-linejoin="round"/>
<path d="M19.9 14.2501C19.9685 13.837 20.0019 13.4188 20 13.0001C20 10.8783 19.1571 8.84351 17.6569 7.34322C16.1566 5.84293 14.1217 5.00008 12 5.00008C11.5813 4.99817 11.1631 5.03163 10.75 5.10008" stroke="#133F63" stroke-width="2" stroke-linecap="round" stroke-linejoin="round"/>
<path d="M22 6L19 3" stroke="#133F63" stroke-width="2" stroke-linecap="round" stroke-linejoin="round"/>
<path d="M6 19L4 21" stroke="#133F63" stroke-width="2" stroke-linecap="round" stroke-linejoin="round"/>
<path d="M2 2L22 22" stroke="#133F63" stroke-width="2" stroke-linecap="round" stroke-linejoin="round"/>
<path d="M4 4L2 6" stroke="#133F63" stroke-width="2" stroke-linecap="round" stroke-linejoin="round"/>
</svg>
