<svg width="37" height="37" viewBox="0 0 37 37" fill="none" xmlns="http://www.w3.org/2000/svg">
<path d="M32.375 11.5623V9.24984C32.375 8.43209 32.0501 7.64783 31.4719 7.06959C30.8937 6.49135 30.1094 6.1665 29.2917 6.1665H7.70833C6.89058 6.1665 6.10632 6.49135 5.52809 7.06959C4.94985 7.64783 4.625 8.43209 4.625 9.24984V30.8332C4.625 31.6509 4.94985 32.4352 5.52809 33.0134C6.10632 33.5917 6.89058 33.9165 7.70833 33.9165H13.1042" stroke="#133F63" stroke-width="2" stroke-linecap="round" stroke-linejoin="round"/>
<path d="M24.6666 3.0835V9.25016" stroke="#133F63" stroke-width="2" stroke-linecap="round" stroke-linejoin="round"/>
<path d="M12.3334 3.0835V9.25016" stroke="#133F63" stroke-width="2" stroke-linecap="round" stroke-linejoin="round"/>
<path d="M4.625 15.4165H12.3333" stroke="#133F63" stroke-width="2" stroke-linecap="round" stroke-linejoin="round"/>
<path d="M26.9791 26.9793L24.6666 25.0522V21.5835" stroke="#133F63" stroke-width="2" stroke-linecap="round" stroke-linejoin="round"/>
<path d="M33.9166 24.6665C33.9166 27.1198 32.9421 29.4725 31.2074 31.2072C29.4727 32.942 27.1199 33.9165 24.6666 33.9165C22.2134 33.9165 19.8606 32.942 18.1259 31.2072C16.3912 29.4725 15.4166 27.1198 15.4166 24.6665C15.4166 22.2133 16.3912 19.8605 18.1259 18.1258C19.8606 16.3911 22.2134 15.4165 24.6666 15.4165C27.1199 15.4165 29.4727 16.3911 31.2074 18.1258C32.9421 19.8605 33.9166 22.2133 33.9166 24.6665Z" stroke="#133F63" stroke-width="2" stroke-linecap="round" stroke-linejoin="round"/>
</svg>
