<svg width="62" height="62" viewBox="0 0 62 62" fill="none" xmlns="http://www.w3.org/2000/svg">
<path d="M28.4167 5.16663C27.0464 5.16663 25.7322 5.71097 24.7633 6.67991C23.7943 7.64885 23.25 8.96301 23.25 10.3333V23.25H10.3333C8.96305 23.25 7.64889 23.7943 6.67995 24.7632C5.71101 25.7322 5.16667 27.0463 5.16667 28.4166V33.5833C5.16667 36.425 7.49167 38.75 10.3333 38.75H23.25V51.6666C23.25 54.5083 25.575 56.8333 28.4167 56.8333H33.5833C34.9536 56.8333 36.2678 56.2889 37.2367 55.32C38.2057 54.3511 38.75 53.0369 38.75 51.6666V38.75H51.6667C53.037 38.75 54.3511 38.2056 55.3201 37.2367C56.289 36.2677 56.8333 34.9536 56.8333 33.5833V28.4166C56.8333 27.0463 56.289 25.7322 55.3201 24.7632C54.3511 23.7943 53.037 23.25 51.6667 23.25H38.75V10.3333C38.75 8.96301 38.2057 7.64885 37.2367 6.67991C36.2678 5.71097 34.9536 5.16663 33.5833 5.16663H28.4167Z" stroke="#133F63" stroke-width="2" stroke-linecap="round" stroke-linejoin="round"/>
</svg>
