<svg width="71" height="71" viewBox="0 0 71 71" fill="none" xmlns="http://www.w3.org/2000/svg">
<path d="M33.7411 36.3167C33.1267 36.3167 32.5374 36.5607 32.103 36.9952C31.6686 37.4296 31.4245 38.0188 31.4245 38.6332V44.4246H25.6331C25.0187 44.4246 24.4295 44.6687 23.995 45.1031C23.5606 45.5376 23.3165 46.1268 23.3165 46.7412V49.0578C23.3165 50.3319 24.359 51.3743 25.6331 51.3743H31.4245V57.1657C31.4245 58.4398 32.467 59.4823 33.7411 59.4823H36.0576C36.672 59.4823 37.2612 59.2382 37.6957 58.8038C38.1301 58.3693 38.3742 57.7801 38.3742 57.1657V51.3743H44.1656C44.78 51.3743 45.3692 51.1302 45.8037 50.6958C46.2381 50.2614 46.4822 49.6721 46.4822 49.0578V46.7412C46.4822 46.1268 46.2381 45.5376 45.8037 45.1031C45.3692 44.6687 44.78 44.4246 44.1656 44.4246H38.3742V38.6332C38.3742 38.0188 38.1301 37.4296 37.6957 36.9952C37.2612 36.5607 36.672 36.3167 36.0576 36.3167H33.7411Z" stroke="#133F63" stroke-width="2" stroke-linecap="round" stroke-linejoin="round"/>
<path d="M56.2083 11.8333H14.7917C11.524 11.8333 8.875 14.4822 8.875 17.7499V59.1666C8.875 62.4343 11.524 65.0833 14.7917 65.0833H56.2083C59.476 65.0833 62.125 62.4343 62.125 59.1666V17.7499C62.125 14.4822 59.476 11.8333 56.2083 11.8333Z" stroke="#133F63" stroke-width="2" stroke-linecap="round" stroke-linejoin="round"/>
<path d="M47.3334 5.91675V17.7501" stroke="#133F63" stroke-width="2" stroke-linecap="round" stroke-linejoin="round"/>
<path d="M23.6666 5.91675V17.7501" stroke="#133F63" stroke-width="2" stroke-linecap="round" stroke-linejoin="round"/>
<path d="M8.875 29.5833H62.125" stroke="#133F63" stroke-width="2" stroke-linecap="round" stroke-linejoin="round"/>
</svg>
